# xmcd
#
# Track frame offsets:
#	150
#	13546
#	25914
#	36446
#	48367
#	61058
#	75416
#	85981
#	98670
#	112211
#	126436
#	138269
#	152347
#	163692
#	177324
#
# Disc length: 2529 seconds
#
# Revision: 0
# Processed by: cddbd v1.5.2PL0 Copyright (c) Steve Scherf et al.
# Submitted via: audiograbber 1.83.01
#
DISCID=b909df0f
DTITLE=Sonny James - CB90090 Chartbuster (CB)
DYEAR=1900
DGENRE=Karaoke
TTITLE0=Running Bear (CB)
TTITLE1=A World Of Our Own (CB)
TTITLE2=Behind The Tear (CB)
TTITLE3=I'll Never Find Another You (CB)
TTITLE4=Take Good Care Of Her (CB)
TTITLE5=It's The Little Things (CB)
TTITLE6=Heaven Says Hello (CB)
TTITLE7=Born To Be With You (CB)
TTITLE8=Don't Keep Me Hangin' On (CB)
TTITLE9=Endlessly (CB)
TTITLE10=Empty Arms (CB)
TTITLE11=Bright Lights, Big City (CB)
TTITLE12=You're The Only World I Know (CB)
TTITLE13=My Love (CB)
TTITLE14=Young Love (CB)
EXTD=
EXTT0=
EXTT1=
EXTT2=
EXTT3=
EXTT4=
EXTT5=
EXTT6=
EXTT7=
EXTT8=
EXTT9=
EXTT10=
EXTT11=
EXTT12=
EXTT13=
EXTT14=
PLAYORDER=
